<svg xmlns="http://www.w3.org/2000/svg" width="192" height="192" viewBox="0 0 192 192">
  <defs>
    <linearGradient id="bg-gradient" x1="0%" y1="0%" x2="100%" y2="100%">
      <stop offset="0%" style="stop-color:#2C7BE5"/>
      <stop offset="100%" style="stop-color:#00BFA6"/>
    </linearGradient>
  </defs>
  
  <!-- Background -->
  <rect width="192" height="192" fill="url(#bg-gradient)" rx="24"/>
  
  <!-- Chart bars -->
  <rect x="32" y="130" width="24" height="48" fill="white" rx="4"/>
  <rect x="68" y="110" width="24" height="68" fill="white" rx="4"/>
  <rect x="104" y="90" width="24" height="88" fill="white" rx="4"/>
  <rect x="140" y="120" width="24" height="58" fill="white" rx="4"/>
  
  <!-- Trend line -->
  <path d="M32 140 L68 120 L104 100 L140 130 L176 110" 
        stroke="white" stroke-width="6" fill="none" opacity="0.8" stroke-linecap="round"/>
  
  <!-- Data points -->
  <circle cx="44" cy="140" r="6" fill="white"/>
  <circle cx="80" cy="120" r="6" fill="white"/>
  <circle cx="116" cy="100" r="6" fill="white"/>
  <circle cx="152" cy="130" r="6" fill="white"/>
  
  <!-- Grid lines -->
  <g stroke="white" stroke-width="2" opacity="0.3">
    <line x1="20" y1="180" x2="172" y2="180"/>
    <line x1="20" y1="160" x2="172" y2="160"/>
    <line x1="20" y1="140" x2="172" y2="140"/>
    <line x1="20" y1="120" x2="172" y2="120"/>
    <line x1="20" y1="100" x2="172" y2="100"/>
  </g>
</svg>